PathFileType	4	(X/Y/Z)	C:\Users\WrightLab\Desktop\Jo\P2_Trial18.trc
DataRate	CameraRate	NumFrames	NumMarkers	Units	OrigDataRate	OrigDataStartFrame	OrigNumFrames
100.00	100.00	       13	19	mm	100.00	55	       433
Frame#	Time	Headset_Front			Headset_Back			Headset_Left			Headset_Right			Left_Shoulder			Right_Shoulder			Sternum			C7			Left Elbow			Right Elbow			Left Wrist			Right Wrist			Left ASIS			Right ASIS			S2			Left Knee			Right Knee			Left Ankle			Right Ankle			
		X1	Y1	Z1	X2	Y2	Z2	X3	Y3	Z3	X4	Y4	Z4	X5	Y5	Z5	X6	Y6	Z6	X7	Y7	Z7	X8	Y8	Z8	X9	Y9	Z9	X10	Y10	Z10	X11	Y11	Z11	X12	Y12	Z12	X13	Y13	Z13	X14	Y14	Z14	X15	Y15	Z15	X16	Y16	Z16	X17	Y17	Z17	X18	Y18	Z18	X19	Y19	Z19	

55	0.540	-634.28070	1445.52881	-683.29688	-745.93591	1427.64246	-964.94641				-727.08972	1513.26709	-786.20679	-434.19083	1399.87317	-876.93884				-624.10822	1298.21619	-856.73810	-573.73254	1403.23499	-1027.59485	-377.96384	1120.78259	-851.92224	-896.54657	1127.63574	-1043.33679				-1001.22925	903.46979	-982.98688	-614.76733	1001.57178	-833.41443	-583.32794	929.17346	-1094.56750	-740.35956	1000.57507	-872.33258	-567.82208	445.17560	-778.30066	-818.69647	525.65662	-999.56976	-454.43732	219.14905	-987.39594	-770.00146	86.53968	-993.27930	
56	0.550				-750.06317	1428.59741	-956.45221				-729.14709	1513.71423	-778.00427	-437.87122	1400.75085	-869.41626				-627.74402	1299.46509	-849.08441	-578.33282	1404.22815	-1020.11041	-379.62894	1120.95691	-844.71625	-902.10651	1129.32031	-1032.32092				-1005.20563	907.38037	-966.36920	-618.73596	1002.33167	-824.78461	-586.77179	930.27374	-1087.48584	-742.76685	1000.83374	-863.48645	-578.38678	448.77960	-760.37238	-818.33014	525.59442	-998.58466	-471.07898	217.99924	-965.90680	-769.31775	85.84130	-993.69171	
57	0.560	-640.49524	1444.21875	-666.59283	-754.09052	1429.47278	-947.85028				-732.25110	1514.99182	-769.11591	-441.27722	1401.11487	-861.79108				-632.18146	1299.78906	-840.16840	-582.96973	1404.54736	-1012.28882	-380.65189	1121.98132	-838.96832	-907.55511	1130.78528	-1020.63257				-1008.98096	911.24054	-948.76239	-621.27612	1003.21503	-816.61188	-590.18939	930.65894	-1079.22205	-746.87903	1000.95282	-855.66968	-585.69238	454.16354	-742.36926	-816.86353	525.11780	-997.93225	-486.50409	216.94978	-943.56348	-769.04688	86.21484	-992.63409	
58	0.570				-758.07159	1430.14636	-939.17273				-734.47968	1514.57837	-759.11621	-445.02893	1401.59705	-855.48254				-634.77844	1300.13855	-833.16748	-587.45532	1405.12134	-1004.41602	-382.26935	1122.93188	-832.10834	-912.73431	1132.42944	-1010.23010				-1012.62787	915.76184	-931.64789	-624.18945	1002.99915	-808.40137	-594.01270	930.52087	-1070.89929	-749.97247	1000.58862	-847.46454	-592.52643	460.28470	-726.24268	-815.94305	524.78693	-997.18738	-503.07440	214.03557	-918.62445	-768.72314	86.82444	-991.42737	
59	0.580				-762.04199	1430.46082	-929.86987				-737.38690	1515.74292	-750.02600	-448.01608	1401.30322	-848.59552				-637.31000	1300.52930	-826.06903	-591.71802	1405.89539	-996.70453	-383.88437	1123.57922	-827.12793	-918.58142	1134.05505	-999.17499				-1015.50836	920.07861	-914.93231	-627.11450	1003.29468	-801.00208	-597.78058	931.10669	-1063.93054	-752.33673	1000.40784	-839.80804	-600.61163	465.15271	-710.03607	-815.21216	524.78186	-996.70740	-519.34991	210.57104	-895.01038	-768.10394	87.20396	-991.98547	
60	0.590				-765.83228	1431.00781	-920.84381				-739.58026	1515.50146	-740.81488	-451.44095	1401.39636	-839.95660				-640.37549	1299.84851	-816.87738	-596.03333	1405.92139	-988.39539	-384.25537	1124.22229	-821.19971	-923.03845	1135.20825	-988.54437				-1017.13275	922.78296	-898.00671	-630.19635	1002.68207	-794.73541	-601.31458	931.62988	-1056.91382	-754.77777	999.45270	-831.44458	-608.27429	471.39081	-696.78143	-814.70258	525.46301	-995.58331	-535.84119	205.42749	-870.90173	-768.14471	88.76174	-989.09137	
61	0.600				-769.63092	1430.95227	-911.87909				-741.70837	1515.08325	-730.96759	-454.35114	1401.37500	-834.56860				-642.93683	1299.51465	-808.34686	-600.20416	1406.14368	-980.43835	-388.13495	1123.89819	-818.79742	-926.67328	1135.95349	-977.66211				-1019.87097	926.99615	-880.81451	-632.35754	1002.40674	-786.46204	-605.21088	931.49316	-1049.67212	-757.36572	999.34448	-823.52881	-614.70398	477.14359	-681.98016	-814.46973	525.85474	-994.48517	-550.86871	201.12126	-846.93475	-768.16815	90.20103	-987.26404	
62	0.610				-773.18152	1430.90662	-902.23096				-744.25195	1514.88977	-722.13837	-457.45734	1401.26855	-828.03479				-646.66229	1299.86865	-801.44220	-604.18408	1406.05847	-971.67084	-390.12326	1123.58459	-809.99536	-929.73706	1135.75037	-967.06232				-1021.73248	930.45410	-865.07343	-634.27826	1001.65686	-778.00452	-609.15503	931.20831	-1041.99463	-759.18567	998.45447	-815.30658	-620.93469	482.17783	-667.27777	-814.07294	526.03931	-992.55261	-566.39294	195.00093	-820.84485	-767.92297	90.66912	-986.35309	
63	0.620				-776.63666	1430.64612	-892.90289				-746.65259	1514.43457	-713.01575	-460.39774	1400.81104	-822.28583				-648.35815	1298.34436	-793.64929	-608.11951	1405.90942	-963.65234	-392.80093	1123.14575	-804.62738	-932.64270	1136.10217	-957.03619				-1022.61407	931.90027	-848.77209	-636.10114	1001.76880	-768.47980	-613.11987	930.66858	-1034.16150	-762.29260	997.84290	-806.86578	-627.16357	486.60248	-655.82245	-814.53070	526.27185	-990.63629	-580.60352	188.72963	-794.92639	-768.46271	92.12412	-981.58240	
64	0.630	-655.76294	1437.30969	-605.44354	-780.05743	1430.15906	-883.25409				-748.57251	1513.52856	-703.82379	-463.35706	1400.25769	-813.65479				-650.90369	1298.26001	-785.37677	-611.99780	1405.73682	-955.29791	-395.57095	1122.83032	-797.15979	-935.30560	1135.34497	-945.69189				-1024.73938	935.54456	-833.52765	-638.89850	1001.52625	-762.54706	-616.88098	930.08197	-1027.01672	-764.29620	997.10730	-798.88092	-630.72186	488.92911	-643.59875	-815.89056	525.99878	-987.78064	-594.22485	181.67339	-767.33728				
65	0.640	-656.75671	1436.56677	-596.34656	-783.37067	1429.53967	-873.34601				-750.90076	1512.58142	-694.29907	-465.98853	1398.89221	-806.47333				-653.93799	1297.01367	-777.00433	-615.84656	1405.30200	-946.53656	-397.66891	1122.45642	-792.24890	-937.75488	1134.45447	-934.48108				-1026.55847	938.55615	-818.66620	-641.29852	1000.59174	-754.79193	-620.32739	928.92676	-1018.71313	-766.59711	996.70734	-790.58893	-634.45612	489.70117	-631.13806	-816.89813	526.06842	-985.08014	-606.92999	174.28889	-740.29974				
66	0.650	-660.59991	1434.02136	-588.53558	-786.56903	1428.55798	-863.59753				-752.98920	1511.15417	-685.14417	-468.54199	1398.37537	-797.87689				-655.91351	1295.74927	-768.43304	-619.52423	1405.09094	-938.37714	-399.84943	1120.85608	-785.16693	-940.09387	1133.28271	-922.58014				-1027.52319	940.14050	-802.17102	-644.26349	1001.30835	-743.61902	-623.38300	927.75708	-1010.76379	-770.14703	995.34094	-782.39520	-636.83038	490.78305	-618.70050	-818.25128	525.81970	-981.64142	-621.08783	166.39836	-710.76959				
67	0.660	-662.94415	1432.45520	-579.77783	-789.67230	1427.73450	-854.43921				-755.00415	1510.06934	-675.55731	-471.82822	1397.50647	-790.74078				-658.87598	1295.20544	-758.92938	-623.26691	1404.32715	-929.61493	-402.40445	1120.06177	-779.16803	-942.25543	1131.88440	-910.96838	-458.10944	1181.96289	-688.81738	-1027.91016	941.18182	-786.46497	-646.99652	1001.30402	-736.44342	-626.16345	926.70770	-1002.48267	-772.17963	994.60590	-773.89697	-638.09692	490.30029	-608.14075	-819.85327	525.59839	-978.50482	-632.58087	159.16844	-681.52496				
